<!DOCTYPE svg PUBLIC "-//W3C//DTD SVG 20010904//EN" "http://www.w3.org/TR/2001/REC-SVG-20010904/DTD/svg10.dtd">
<svg version="1.0" xmlns="http://www.w3.org/2000/svg" width="64px" height="63px" viewBox="0 0 640 630" preserveAspectRatio="xMidYMid meet">
<g id="layer101" fill="#00011d" stroke="none">
 <path d="M17 612 c-23 -26 -25 -247 -2 -279 13 -18 13 -22 0 -33 -12 -10 -15 -39 -15 -136 0 -166 -2 -164 162 -164 99 0 125 3 140 17 17 15 19 15 36 0 15 -14 41 -17 144 -17 163 0 158 -5 158 163 0 97 -3 129 -15 140 -13 13 -13 16 0 27 12 10 15 40 15 137 0 68 -5 133 -10 144 -10 17 -23 19 -150 19 -116 0 -140 -3 -148 -16 -8 -14 -10 -14 -21 0 -11 13 -38 16 -146 16 -115 0 -134 -2 -148 -18z m321 -284 c7 -9 6 -17 -3 -25 -10 -10 -16 -9 -25 2 -12 14 -6 35 9 35 5 0 13 -6 19 -12z"/>
 </g>
<g id="layer102" fill="#02052b" stroke="none">
 <path d="M17 612 c-23 -26 -25 -247 -2 -279 13 -18 13 -22 0 -33 -12 -10 -15 -39 -15 -136 0 -166 -2 -164 162 -164 99 0 125 3 140 17 17 15 19 15 36 0 15 -14 41 -17 144 -17 163 0 158 -5 158 163 0 97 -3 129 -15 140 -13 13 -13 16 0 27 12 10 15 40 15 137 0 68 -5 133 -10 144 -10 17 -23 19 -150 19 -116 0 -140 -3 -148 -16 -8 -14 -10 -14 -21 0 -11 13 -38 16 -146 16 -115 0 -134 -2 -148 -18z m271 -14 c7 -7 12 -19 11 -27 0 -10 -4 -7 -9 7 -9 21 -15 22 -123 22 -76 0 -118 -4 -127 -12 -12 -11 -12 -10 -1 5 11 14 30 17 125 17 74 0 116 -4 124 -12z m249 5 c-31 -2 -83 -2 -115 0 -31 2 -5 3 58 3 63 0 89 -1 57 -3z m70 -20 c-4 -3 -7 0 -7 7 0 7 3 10 7 7 3 -4 3 -10 0 -14z m-260 -160 c-2 -32 -3 -8 -3 52 0 61 1 87 3 58 2 -29 2 -78 0 -110z m270 95 c-3 -7 -5 -2 -5 12 0 14 2 19 5 13 2 -7 2 -19 0 -25z m-331 -166 c-17 -16 -18 -16 -5 5 7 12 15 20 18 17 3 -2 -3 -12 -13 -22z m89 -10 c-3 -3 -11 0 -18 7 -9 10 -8 11 6 5 10 -3 15 -9 12 -12z m230 8 c-3 -5 -12 -10 -18 -10 -7 0 -6 4 3 10 19 12 23 12 15 0z m-267 -22 c7 -9 6 -17 -3 -25 -10 -10 -16 -9 -25 2 -12 14 -6 35 9 35 5 0 13 -6 19 -12z m-172 -35 c-66 -2 -116 -9 -125 -16 -14 -11 -14 -10 -2 6 12 15 29 17 125 15 l111 -2 -109 -3z m435 -10 c12 -16 12 -17 -2 -6 -9 7 -59 14 -125 16 l-109 3 111 2 c96 2 113 0 125 -15z m-303 -24 c-3 -8 -7 -3 -11 10 -4 17 -3 21 5 13 5 -5 8 -16 6 -23z m49 -146 c-2 -32 -3 -8 -3 52 0 61 1 87 3 58 2 -29 2 -78 0 -110z m-61 -71 c-17 -16 -18 -16 -5 5 7 12 15 20 18 17 3 -2 -3 -12 -13 -22z m-231 -11 c-6 -5 -25 10 -25 20 0 5 6 4 14 -3 8 -7 12 -15 11 -17z m310 9 c3 -5 4 -10 1 -10 -3 0 -8 5 -11 10 -3 6 -4 10 -1 10 3 0 8 -4 11 -10z m240 0 c-3 -5 -12 -10 -18 -10 -7 0 -6 4 3 10 19 12 23 12 15 0z"/>
 </g>
<g id="layer103" fill="#001145" stroke="none">
 <path d="M17 612 c-23 -26 -25 -247 -2 -279 13 -18 13 -22 0 -33 -12 -10 -15 -39 -15 -136 0 -166 -2 -164 162 -164 99 0 125 3 140 17 17 15 19 15 36 0 15 -14 41 -17 144 -17 163 0 158 -5 158 163 0 97 -3 129 -15 140 -13 13 -13 16 0 27 12 10 15 40 15 137 0 68 -5 133 -10 144 -10 17 -23 19 -150 19 -116 0 -140 -3 -148 -16 -8 -14 -10 -14 -21 0 -11 13 -38 16 -146 16 -115 0 -134 -2 -148 -18z m273 -17 c6 -8 10 -20 7 -27 -4 -9 -6 -7 -6 3 -1 25 -22 29 -136 29 -89 0 -106 -3 -114 -17 -6 -10 -11 -13 -11 -7 0 27 27 34 136 34 86 0 114 -3 124 -15z m314 -1 c12 -12 16 -38 16 -115 0 -105 -9 -139 -38 -139 -13 0 -12 3 6 16 20 14 22 23 22 118 0 66 -4 106 -12 114 -16 16 -220 16 -236 0 -13 -13 -17 -192 -6 -222 3 -9 14 -16 23 -17 10 0 12 -2 3 -6 -32 -13 -42 17 -42 124 0 147 -4 143 135 143 90 0 117 -3 129 -16z m-314 -239 c-7 -8 -18 -15 -24 -15 -6 0 -3 5 7 11 9 5 17 18 18 27 0 11 2 12 6 4 3 -7 -1 -19 -7 -27z m-226 -14 c-7 -9 -34 10 -34 24 0 13 3 12 18 -2 10 -10 17 -20 16 -22z m274 -13 c7 -9 6 -17 -3 -25 -10 -10 -16 -9 -25 2 -12 14 -6 35 9 35 5 0 13 -6 19 -12z m-50 -40 c7 -7 12 -19 12 -27 0 -11 -5 -9 -16 7 -14 20 -23 22 -124 22 -93 0 -110 -3 -119 -17 -6 -10 -11 -13 -11 -7 0 27 27 34 135 34 73 0 115 -4 123 -12z m316 -4 c12 -12 16 -38 16 -115 0 -97 -9 -139 -31 -139 -6 0 -3 7 5 16 20 20 23 213 4 232 -16 16 -220 16 -236 0 -19 -19 -16 -212 4 -232 8 -9 12 -16 7 -16 -26 0 -33 29 -33 131 0 141 -2 139 140 139 85 0 112 -3 124 -16z m-314 -239 c-7 -8 -18 -15 -24 -15 -6 0 -3 5 7 11 9 5 17 18 18 27 0 11 2 12 6 4 3 -7 -1 -19 -7 -27z m-226 -14 c-7 -9 -34 10 -34 24 0 13 3 12 18 -2 10 -10 17 -20 16 -22z"/>
 </g>
<g id="layer104" fill="#331f20" stroke="none">
 <path d="M17 612 c-23 -26 -25 -247 -2 -279 13 -18 13 -22 0 -33 -12 -10 -15 -39 -15 -136 0 -166 -2 -164 162 -164 99 0 125 3 140 17 17 15 19 15 36 0 15 -14 41 -17 144 -17 163 0 158 -5 158 163 0 97 -3 129 -15 140 -13 13 -13 16 0 27 12 10 15 40 15 137 0 68 -5 133 -10 144 -10 17 -23 19 -150 19 -116 0 -140 -3 -148 -16 -8 -14 -10 -14 -21 0 -11 13 -38 16 -146 16 -115 0 -134 -2 -148 -18z m271 -14 c7 -7 12 -19 12 -27 0 -11 -5 -9 -16 7 -14 20 -23 22 -119 22 -131 0 -135 -4 -135 -132 0 -121 8 -128 133 -128 93 0 119 8 130 40 4 12 6 11 6 -2 2 -37 -41 -50 -148 -46 -65 2 -105 8 -113 16 -8 8 -14 48 -16 113 -6 146 -3 149 141 149 75 0 117 -4 125 -12z m320 0 c8 -8 12 -49 12 -120 0 -145 -3 -148 -142 -148 -137 0 -138 1 -138 137 0 147 -4 143 138 143 79 0 122 -4 130 -12z m-270 -270 c7 -9 6 -17 -3 -25 -10 -10 -16 -9 -25 2 -12 14 -6 35 9 35 5 0 13 -6 19 -12z m-50 -40 c7 -7 12 -19 12 -27 0 -11 -5 -9 -16 7 -14 20 -23 22 -119 22 -131 0 -135 -4 -135 -132 0 -121 8 -128 133 -128 93 0 119 8 130 40 4 12 6 12 6 -2 2 -35 -38 -48 -141 -48 -133 0 -138 5 -138 138 0 141 1 142 144 142 74 0 116 -4 124 -12z m313 2 c17 -10 19 -22 19 -120 0 -146 -3 -150 -138 -150 -139 0 -142 2 -142 136 0 147 -3 144 131 144 61 0 119 -5 130 -10z"/>
 <path d="M360 581 c-5 -11 -10 -62 -10 -115 0 -120 6 -126 130 -126 124 0 130 6 130 126 0 136 2 134 -130 134 -98 0 -110 -2 -120 -19z"/>
 <path d="M360 271 c-5 -11 -10 -62 -10 -114 0 -124 4 -127 132 -127 124 0 128 4 128 129 0 133 2 131 -130 131 -98 0 -110 -2 -120 -19z"/>
 </g>
<g id="layer105" fill="#22304e" stroke="none">
 <path d="M17 612 c-23 -26 -25 -247 -2 -279 13 -18 13 -22 0 -33 -12 -10 -15 -39 -15 -136 0 -166 -2 -164 162 -164 99 0 125 3 140 17 17 15 19 15 36 0 15 -14 41 -17 144 -17 163 0 158 -5 158 163 0 97 -3 129 -15 140 -13 13 -13 16 0 27 12 10 15 40 15 137 0 68 -5 133 -10 144 -10 17 -23 19 -150 19 -116 0 -140 -3 -148 -16 -8 -14 -10 -14 -21 0 -11 13 -38 16 -146 16 -115 0 -134 -2 -148 -18z m274 -19 c10 -11 14 -47 14 -120 0 -99 -1 -106 -25 -125 -21 -17 -36 -19 -127 -16 -66 2 -107 8 -115 16 -8 8 -14 48 -16 113 -6 147 -3 149 142 149 93 0 116 -3 127 -17z m317 5 c8 -8 12 -49 12 -120 0 -145 -3 -148 -142 -148 -137 0 -138 1 -138 137 0 147 -4 143 138 143 79 0 122 -4 130 -12z m-270 -270 c7 -9 6 -17 -3 -25 -10 -10 -16 -9 -25 2 -12 14 -6 35 9 35 5 0 13 -6 19 -12z m-47 -45 c10 -11 14 -47 14 -120 0 -138 -5 -143 -146 -143 -134 0 -139 5 -139 138 0 141 1 142 144 142 93 0 116 -3 127 -17z m310 7 c17 -10 19 -22 19 -118 0 -150 -2 -152 -133 -152 -145 0 -147 2 -147 136 0 147 -3 144 131 144 61 0 119 -5 130 -10z"/>
 <path d="M46 578 c-12 -16 -16 -47 -16 -110 0 -119 9 -128 124 -128 47 0 96 4 110 10 26 9 26 11 26 118 0 71 -4 112 -12 120 -8 8 -48 12 -114 12 -95 0 -104 -2 -118 -22z"/>
 <path d="M360 581 c-5 -11 -10 -62 -10 -115 0 -120 6 -126 130 -126 124 0 130 6 130 126 0 136 2 134 -130 134 -98 0 -110 -2 -120 -19z"/>
 <path d="M46 268 c-12 -16 -16 -47 -16 -110 0 -120 8 -128 131 -128 130 0 129 -1 129 128 0 71 -4 112 -12 120 -8 8 -48 12 -114 12 -95 0 -104 -2 -118 -22z"/>
 <path d="M360 271 c-5 -11 -10 -62 -10 -115 0 -120 6 -126 130 -126 124 0 130 6 130 126 0 136 2 134 -130 134 -98 0 -110 -2 -120 -19z"/>
 </g>
<g id="layer106" fill="#423541" stroke="none">
 <path d="M17 612 c-23 -26 -25 -247 -2 -279 13 -18 13 -22 0 -33 -12 -10 -15 -39 -15 -136 0 -166 -2 -164 162 -164 99 0 125 3 140 17 17 15 19 15 36 0 15 -14 41 -17 144 -17 163 0 158 -5 158 163 0 97 -3 129 -15 140 -13 13 -13 16 0 27 12 10 15 40 15 137 0 68 -5 133 -10 144 -10 17 -23 19 -150 19 -116 0 -140 -3 -148 -16 -8 -14 -10 -14 -21 0 -11 13 -38 16 -146 16 -115 0 -134 -2 -148 -18z m274 -19 c21 -25 25 -180 5 -226 l-15 -37 -110 0 c-149 0 -151 2 -151 148 0 71 4 112 12 120 8 8 51 12 129 12 96 0 119 -3 130 -17z m317 5 c8 -8 12 -50 12 -124 0 -143 -1 -144 -144 -144 -136 0 -136 0 -136 145 0 73 4 115 12 123 17 17 239 17 256 0z m-270 -270 c7 -9 6 -17 -3 -25 -10 -10 -16 -9 -25 2 -12 14 -6 35 9 35 5 0 13 -6 19 -12z m-47 -45 c10 -11 14 -47 14 -123 0 -142 2 -140 -136 -140 -147 0 -149 2 -149 150 0 93 3 110 18 119 9 6 67 11 128 11 92 0 114 -3 125 -17z m317 5 c8 -8 12 -50 12 -122 0 -146 0 -146 -138 -146 -142 0 -142 0 -142 145 0 73 4 115 12 123 17 17 239 17 256 0z"/>
 <path d="M46 578 c-12 -16 -16 -47 -16 -110 0 -120 8 -128 128 -128 128 0 132 4 132 134 0 66 -4 106 -12 114 -8 8 -48 12 -114 12 -95 0 -104 -2 -118 -22z"/>
 <path d="M366 584 c-12 -12 -16 -38 -16 -114 0 -125 5 -130 130 -130 125 0 130 5 130 130 0 129 -1 130 -130 130 -76 0 -102 -4 -114 -16z"/>
 <path d="M46 268 c-12 -16 -16 -47 -16 -110 0 -121 8 -128 134 -128 125 0 126 1 126 134 0 66 -4 106 -12 114 -8 8 -48 12 -114 12 -95 0 -104 -2 -118 -22z"/>
 <path d="M367 272 c-13 -15 -17 -39 -17 -115 0 -121 6 -127 130 -127 125 0 130 5 130 130 0 129 -1 130 -129 130 -82 0 -101 -3 -114 -18z"/>
 </g>
<g id="layer107" fill="#5b3b2e" stroke="none">
 <path d="M17 612 c-23 -26 -25 -247 -2 -279 13 -18 13 -22 0 -33 -12 -10 -15 -39 -15 -136 0 -166 -2 -164 162 -164 99 0 125 3 140 17 17 15 19 15 36 0 15 -14 41 -17 144 -17 163 0 158 -5 158 163 0 97 -3 129 -15 140 -13 13 -13 16 0 27 12 10 15 40 15 137 0 68 -5 133 -10 144 -10 17 -23 19 -150 19 -116 0 -140 -3 -148 -16 -8 -14 -10 -14 -21 0 -11 13 -38 16 -146 16 -115 0 -134 -2 -148 -18z m274 -19 c20 -23 20 -223 0 -246 -11 -14 -33 -17 -122 -17 -147 0 -149 2 -149 148 0 71 4 112 12 120 8 8 51 12 129 12 96 0 119 -3 130 -17z m317 5 c8 -8 12 -50 12 -124 0 -143 -1 -144 -144 -144 -136 0 -136 0 -136 145 0 73 4 115 12 123 17 17 239 17 256 0z m-270 -270 c7 -9 6 -17 -3 -25 -10 -10 -16 -9 -25 2 -12 14 -6 35 9 35 5 0 13 -6 19 -12z m-47 -45 c10 -11 14 -47 14 -123 0 -142 2 -140 -136 -140 -147 0 -149 2 -149 150 0 93 3 110 18 119 9 6 67 11 128 11 92 0 114 -3 125 -17z m317 5 c8 -8 12 -50 12 -122 0 -146 0 -146 -138 -146 -142 0 -142 0 -142 145 0 73 4 115 12 123 17 17 239 17 256 0z"/>
 <path d="M46 578 c-11 -16 -16 -47 -16 -106 0 -75 2 -85 25 -107 22 -23 32 -25 107 -25 123 0 128 5 128 134 0 66 -4 106 -12 114 -8 8 -48 12 -114 12 -95 0 -104 -2 -118 -22z"/>
 <path d="M367 582 c-13 -15 -17 -39 -17 -110 0 -125 7 -132 130 -132 123 0 130 7 130 133 0 123 -4 127 -132 127 -79 0 -98 -3 -111 -18z"/>
 <path d="M46 268 c-11 -16 -16 -46 -16 -104 0 -67 4 -86 21 -108 19 -25 25 -26 113 -26 123 0 126 3 126 138 0 123 1 122 -134 122 -87 0 -96 -2 -110 -22z"/>
 <path d="M367 272 c-13 -15 -17 -39 -17 -115 0 -121 6 -127 130 -127 125 0 130 5 130 129 0 128 -3 131 -132 131 -79 0 -98 -3 -111 -18z"/>
 </g>
<g id="layer108" fill="#77472b" stroke="none">
 <path d="M17 612 c-23 -26 -25 -247 -2 -279 13 -18 13 -22 0 -33 -12 -10 -15 -39 -15 -136 0 -166 -2 -164 162 -164 99 0 125 3 140 17 17 15 19 15 36 0 15 -14 41 -17 144 -17 163 0 158 -5 158 163 0 97 -3 129 -15 140 -13 13 -13 16 0 27 12 10 15 40 15 137 0 68 -5 133 -10 144 -10 17 -23 19 -150 19 -116 0 -140 -3 -148 -16 -8 -14 -10 -14 -21 0 -11 13 -38 16 -146 16 -115 0 -134 -2 -148 -18z m274 -19 c20 -23 20 -223 0 -246 -11 -14 -33 -17 -122 -17 -147 0 -149 2 -149 148 0 71 4 112 12 120 8 8 51 12 129 12 96 0 119 -3 130 -17z m317 5 c8 -8 12 -50 12 -124 0 -143 -1 -144 -144 -144 -136 0 -136 0 -136 145 0 73 4 115 12 123 17 17 239 17 256 0z m-270 -270 c7 -9 6 -17 -3 -25 -10 -10 -16 -9 -25 2 -12 14 -6 35 9 35 5 0 13 -6 19 -12z m-47 -45 c10 -11 14 -47 14 -123 0 -142 2 -140 -136 -140 -147 0 -149 2 -149 150 0 93 3 110 18 119 9 6 67 11 128 11 92 0 114 -3 125 -17z m317 5 c8 -8 12 -50 12 -122 0 -146 0 -146 -138 -146 -142 0 -142 0 -142 145 0 73 4 115 12 123 17 17 239 17 256 0z"/>
 <path d="M58 589 c-15 -8 -18 -25 -18 -114 0 -130 5 -135 125 -135 120 0 125 5 125 135 0 93 -2 105 -19 115 -25 13 -191 13 -213 -1z"/>
 <path d="M367 582 c-13 -14 -17 -39 -17 -108 0 -127 2 -129 130 -129 128 0 130 2 130 130 0 121 -4 125 -132 125 -79 0 -98 -3 -111 -18z"/>
 <path d="M58 279 c-15 -8 -18 -25 -18 -114 0 -130 5 -135 125 -135 120 0 125 5 125 135 0 93 -2 105 -19 115 -25 13 -191 13 -213 -1z"/>
 <path d="M367 272 c-13 -15 -17 -39 -17 -110 0 -125 7 -132 130 -132 123 0 130 7 130 133 0 123 -4 127 -132 127 -79 0 -98 -3 -111 -18z"/>
 </g>
<g id="layer109" fill="#8f532d" stroke="none">
 <path d="M17 612 c-23 -26 -25 -247 -2 -279 13 -18 13 -22 0 -33 -12 -10 -15 -39 -15 -136 0 -166 -2 -164 162 -164 99 0 125 3 140 17 17 15 19 15 36 0 15 -14 41 -17 144 -17 163 0 158 -5 158 163 0 97 -3 129 -15 140 -13 13 -13 16 0 27 12 10 15 40 15 137 0 68 -5 133 -10 144 -10 17 -23 19 -150 19 -116 0 -140 -3 -148 -16 -8 -14 -10 -14 -21 0 -11 13 -38 16 -146 16 -115 0 -134 -2 -148 -18z m274 -19 c20 -23 20 -223 0 -246 -11 -14 -33 -17 -122 -17 -147 0 -149 2 -149 148 0 71 4 112 12 120 8 8 51 12 129 12 96 0 119 -3 130 -17z m317 5 c8 -8 12 -50 12 -124 0 -143 -1 -144 -144 -144 -136 0 -136 0 -136 145 0 73 4 115 12 123 17 17 239 17 256 0z m-270 -270 c7 -9 6 -17 -3 -25 -10 -10 -16 -9 -25 2 -12 14 -6 35 9 35 5 0 13 -6 19 -12z m-47 -45 c10 -11 14 -47 14 -123 0 -142 2 -140 -136 -140 -147 0 -149 2 -149 150 0 93 3 110 18 119 9 6 67 11 128 11 92 0 114 -3 125 -17z m317 5 c8 -8 12 -50 12 -122 0 -146 0 -146 -138 -146 -142 0 -142 0 -142 145 0 73 4 115 12 123 17 17 239 17 256 0z"/>
 <path d="M58 589 c-15 -8 -18 -25 -18 -112 0 -67 4 -107 12 -115 16 -16 210 -16 226 0 8 8 12 47 12 109 0 127 -2 129 -123 129 -51 0 -100 -5 -109 -11z"/>
 <path d="M367 582 c-13 -14 -17 -39 -17 -106 0 -127 -1 -126 130 -126 131 0 130 -1 130 128 0 118 -4 122 -132 122 -79 0 -98 -3 -111 -18z"/>
 <path d="M58 279 c-15 -8 -18 -25 -18 -114 0 -130 5 -135 125 -135 119 0 125 6 125 130 0 128 -2 130 -123 130 -51 0 -100 -5 -109 -11z"/>
 <path d="M366 268 c-21 -30 -22 -186 -2 -214 13 -17 27 -19 116 -19 127 0 130 3 130 125 0 125 -5 130 -130 130 -91 0 -100 -2 -114 -22z"/>
 </g>
<g id="layer110" fill="#4a5f7c" stroke="none">
 <path d="M17 612 c-23 -26 -25 -247 -2 -279 13 -18 13 -22 0 -33 -12 -10 -15 -39 -15 -136 0 -166 -2 -164 162 -164 99 0 125 3 140 17 17 15 19 15 36 0 15 -14 41 -17 144 -17 163 0 158 -5 158 163 0 97 -3 129 -15 140 -13 13 -13 16 0 27 12 10 15 40 15 137 0 68 -5 133 -10 144 -10 17 -23 19 -150 19 -116 0 -140 -3 -148 -16 -8 -14 -10 -14 -21 0 -11 13 -38 16 -146 16 -115 0 -134 -2 -148 -18z m274 -19 c20 -23 20 -223 0 -246 -11 -14 -33 -17 -122 -17 -147 0 -149 2 -149 148 0 71 4 112 12 120 8 8 51 12 129 12 96 0 119 -3 130 -17z m317 5 c8 -8 12 -50 12 -124 0 -143 -1 -144 -144 -144 -136 0 -136 0 -136 145 0 73 4 115 12 123 17 17 239 17 256 0z m-270 -270 c7 -9 6 -17 -3 -25 -10 -10 -16 -9 -25 2 -12 14 -6 35 9 35 5 0 13 -6 19 -12z m-47 -45 c10 -11 14 -47 14 -123 0 -142 2 -140 -136 -140 -147 0 -149 2 -149 150 0 93 3 110 18 119 9 6 67 11 128 11 92 0 114 -3 125 -17z m317 5 c8 -8 12 -50 12 -122 0 -146 0 -146 -138 -146 -142 0 -142 0 -142 145 0 73 4 115 12 123 17 17 239 17 256 0z"/>
 <path d="M56 584 c-20 -20 -23 -203 -4 -222 16 -16 210 -16 226 0 8 8 12 47 12 108 0 126 -4 130 -128 130 -69 0 -94 -4 -106 -16z"/>
 <path d="M366 578 c-12 -16 -16 -47 -16 -110 0 -115 3 -118 130 -118 127 0 130 3 130 118 0 127 -5 132 -130 132 -91 0 -100 -2 -114 -22z"/>
 <path d="M56 274 c-20 -20 -23 -203 -4 -222 16 -16 210 -16 226 0 8 8 12 47 12 108 0 126 -4 130 -128 130 -69 0 -94 -4 -106 -16z"/>
 <path d="M370 270 c-17 -17 -20 -33 -20 -106 0 -124 0 -124 125 -124 133 0 135 1 135 121 0 121 -8 129 -130 129 -77 0 -93 -3 -110 -20z"/>
 </g>
<g id="layer111" fill="#af6732" stroke="none">
 <path d="M17 612 c-23 -26 -25 -247 -2 -279 13 -18 13 -22 0 -33 -12 -10 -15 -39 -15 -136 0 -166 -2 -164 162 -164 99 0 125 3 140 17 17 15 19 15 36 0 15 -14 41 -17 144 -17 163 0 158 -5 158 163 0 97 -3 129 -15 140 -13 13 -13 16 0 27 12 10 15 40 15 137 0 68 -5 133 -10 144 -10 17 -23 19 -150 19 -116 0 -140 -3 -148 -16 -8 -14 -10 -14 -21 0 -11 13 -38 16 -146 16 -115 0 -134 -2 -148 -18z m264 -11 c22 -17 24 -28 27 -120 5 -148 3 -151 -137 -151 -152 0 -153 0 -149 150 3 111 4 115 28 127 15 7 63 13 116 13 76 0 96 -3 115 -19z m317 3 c20 -14 22 -23 22 -126 0 -148 0 -148 -138 -148 -142 0 -142 0 -142 143 0 147 0 147 134 147 76 0 107 -4 124 -16z m-260 -276 c7 -9 6 -17 -3 -25 -10 -10 -16 -9 -25 2 -12 14 -6 35 9 35 5 0 13 -6 19 -12z m-52 -39 c27 -30 34 -207 10 -244 -16 -24 -20 -25 -130 -25 -149 0 -148 -2 -144 151 3 110 4 114 28 126 15 8 64 13 121 13 85 0 98 -2 115 -21z m317 2 c14 -11 17 -33 17 -124 0 -148 1 -147 -141 -147 -143 0 -140 -3 -137 148 3 113 4 117 28 130 34 17 210 12 233 -7z"/>
 <path d="M56 584 c-20 -20 -23 -203 -4 -222 16 -16 210 -16 226 0 8 8 12 47 12 108 0 126 -4 130 -128 130 -69 0 -94 -4 -106 -16z"/>
 <path d="M366 578 c-12 -16 -16 -47 -16 -110 0 -115 3 -118 130 -118 127 0 130 3 130 118 0 127 -5 132 -130 132 -91 0 -100 -2 -114 -22z"/>
 <path d="M56 274 c-20 -20 -23 -203 -4 -222 16 -16 210 -16 226 0 8 8 12 47 12 108 0 126 -4 130 -128 130 -69 0 -94 -4 -106 -16z"/>
 <path d="M370 270 c-17 -17 -20 -33 -20 -106 0 -124 0 -124 125 -124 133 0 135 1 135 121 0 121 -8 129 -130 129 -77 0 -93 -3 -110 -20z"/>
 </g>
<g id="layer112" fill="#5f6e86" stroke="none">
 <path d="M17 612 c-23 -26 -25 -247 -2 -279 13 -18 13 -22 0 -33 -12 -10 -15 -39 -15 -136 0 -166 -2 -164 162 -164 99 0 125 3 140 17 17 15 19 15 36 0 15 -14 41 -17 144 -17 163 0 158 -5 158 163 0 97 -3 129 -15 140 -13 13 -13 16 0 27 12 10 15 40 15 137 0 68 -5 133 -10 144 -10 17 -23 19 -150 19 -116 0 -140 -3 -148 -16 -8 -14 -10 -14 -21 0 -11 13 -38 16 -146 16 -115 0 -134 -2 -148 -18z m264 -11 c22 -17 24 -28 27 -120 5 -148 3 -151 -137 -151 -152 0 -153 0 -149 150 3 111 4 115 28 127 15 7 63 13 116 13 76 0 96 -3 115 -19z m317 3 c20 -14 22 -23 22 -126 0 -148 0 -148 -138 -148 -142 0 -142 0 -142 143 0 147 0 147 134 147 76 0 107 -4 124 -16z m-260 -276 c7 -9 6 -17 -3 -25 -10 -10 -16 -9 -25 2 -12 14 -6 35 9 35 5 0 13 -6 19 -12z m-52 -39 c27 -30 34 -207 10 -244 -16 -24 -20 -25 -130 -25 -149 0 -148 -2 -144 151 3 110 4 114 28 126 15 8 64 13 121 13 85 0 98 -2 115 -21z m317 2 c14 -11 17 -33 17 -124 0 -148 1 -147 -141 -147 -143 0 -140 -3 -137 148 3 113 4 117 28 130 34 17 210 12 233 -7z"/>
 <path d="M57 582 c-13 -15 -17 -39 -17 -113 0 -61 4 -99 12 -107 8 -8 48 -12 115 -12 124 0 123 -1 123 128 0 117 -5 122 -127 122 -74 0 -93 -3 -106 -18z"/>
 <path d="M374 586 c-27 -20 -34 -174 -10 -211 16 -24 21 -25 116 -25 124 0 130 6 130 127 0 114 -9 123 -128 123 -60 0 -94 -4 -108 -14z"/>
 <path d="M57 272 c-13 -15 -17 -39 -17 -113 0 -61 4 -99 12 -107 8 -8 48 -12 115 -12 124 0 123 -1 123 129 0 115 -7 121 -131 121 -71 0 -89 -3 -102 -18z"/>
 <path d="M374 276 c-27 -20 -34 -174 -10 -211 16 -24 21 -25 116 -25 124 0 130 6 130 127 0 114 -9 123 -128 123 -60 0 -94 -4 -108 -14z"/>
 </g>
<g id="layer113" fill="#ce722e" stroke="none">
 <path d="M17 612 c-23 -26 -25 -247 -2 -279 13 -18 13 -22 0 -33 -12 -10 -15 -39 -15 -136 0 -166 -2 -164 162 -164 99 0 125 3 140 17 17 15 19 15 36 0 15 -14 41 -17 144 -17 163 0 158 -5 158 163 0 97 -3 129 -15 140 -13 13 -13 16 0 27 12 10 15 40 15 137 0 68 -5 133 -10 144 -10 17 -23 19 -150 19 -116 0 -140 -3 -148 -16 -8 -14 -10 -14 -21 0 -11 13 -38 16 -146 16 -115 0 -134 -2 -148 -18z m273 -12 c17 -17 20 -33 20 -123 0 -146 -1 -147 -142 -147 -149 0 -148 -1 -148 146 0 143 1 144 147 144 90 0 106 -3 123 -20z m308 4 c20 -14 22 -23 22 -126 0 -148 0 -148 -137 -148 -147 0 -143 -4 -143 137 0 153 0 153 134 153 76 0 107 -4 124 -16z m-260 -276 c7 -9 6 -17 -3 -25 -10 -10 -16 -9 -25 2 -12 14 -6 35 9 35 5 0 13 -6 19 -12z m-51 -40 c21 -20 23 -30 23 -123 0 -144 -1 -145 -142 -145 -149 0 -148 -1 -148 146 0 143 1 144 144 144 89 0 102 -2 123 -22z m311 6 c20 -14 22 -23 22 -126 0 -148 0 -148 -137 -148 -147 0 -143 -4 -143 140 0 112 1 120 22 134 32 22 204 22 236 0z"/>
 <path d="M57 582 c-13 -15 -17 -39 -17 -113 0 -61 4 -99 12 -107 8 -8 48 -12 115 -12 124 0 123 -1 123 128 0 117 -5 122 -127 122 -74 0 -93 -3 -106 -18z"/>
 <path d="M374 586 c-27 -20 -34 -174 -10 -211 16 -24 21 -25 116 -25 124 0 130 6 130 127 0 114 -9 123 -128 123 -60 0 -94 -4 -108 -14z"/>
 <path d="M57 272 c-13 -15 -17 -39 -17 -113 0 -61 4 -99 12 -107 8 -8 48 -12 115 -12 124 0 123 -1 123 129 0 115 -7 121 -131 121 -71 0 -89 -3 -102 -18z"/>
 <path d="M374 276 c-27 -20 -34 -174 -10 -211 16 -24 21 -25 116 -25 124 0 130 6 130 127 0 114 -9 123 -128 123 -60 0 -94 -4 -108 -14z"/>
 </g>
<g id="layer114" fill="#f5720e" stroke="none">
 <path d="M17 612 c-23 -26 -25 -247 -2 -279 13 -18 13 -22 0 -33 -12 -10 -15 -39 -15 -136 0 -166 -2 -164 162 -164 99 0 125 3 140 17 17 15 19 15 36 0 15 -14 41 -17 144 -17 163 0 158 -5 158 163 0 97 -3 129 -15 140 -13 13 -13 16 0 27 12 10 15 40 15 137 0 68 -5 133 -10 144 -10 17 -23 19 -150 19 -116 0 -140 -3 -148 -16 -8 -14 -10 -14 -21 0 -11 13 -38 16 -146 16 -115 0 -134 -2 -148 -18z m273 -12 c17 -17 20 -33 20 -123 0 -146 -1 -147 -142 -147 -149 0 -148 -1 -148 146 0 143 1 144 147 144 90 0 106 -3 123 -20z m308 4 c20 -14 22 -23 22 -126 0 -148 0 -148 -137 -148 -147 0 -143 -4 -143 137 0 153 0 153 134 153 76 0 107 -4 124 -16z m-260 -276 c7 -9 6 -17 -3 -25 -10 -10 -16 -9 -25 2 -12 14 -6 35 9 35 5 0 13 -6 19 -12z m-51 -40 c21 -20 23 -30 23 -123 0 -144 -1 -145 -142 -145 -149 0 -148 -1 -148 146 0 143 1 144 144 144 89 0 102 -2 123 -22z m311 6 c20 -14 22 -23 22 -126 0 -148 0 -148 -137 -148 -147 0 -143 -4 -143 140 0 112 1 120 22 134 32 22 204 22 236 0z"/>
 <path d="M62 584 c-20 -14 -22 -23 -22 -105 0 -129 0 -129 120 -129 128 0 130 2 130 125 0 118 -7 125 -125 125 -57 0 -87 -5 -103 -16z"/>
 <path d="M378 589 c-15 -8 -18 -25 -18 -112 0 -67 4 -107 12 -115 16 -16 200 -16 216 0 8 8 12 48 12 115 0 91 -2 103 -19 113 -25 13 -181 13 -203 -1z"/>
 <path d="M62 274 c-20 -14 -22 -23 -22 -105 0 -130 -1 -129 125 -129 125 0 125 0 125 124 0 116 -9 126 -123 126 -59 0 -89 -5 -105 -16z"/>
 <path d="M383 280 c-22 -9 -23 -15 -23 -113 0 -67 4 -107 12 -115 16 -16 200 -16 216 0 8 8 12 48 12 115 0 102 0 104 -26 113 -31 12 -161 12 -191 0z"/>
 </g>
<g id="layer115" fill="#f58328" stroke="none">
 <path d="M17 612 c-23 -26 -25 -247 -2 -279 13 -18 13 -22 0 -33 -12 -10 -15 -39 -15 -136 0 -166 -2 -164 162 -164 99 0 125 3 140 17 17 15 19 15 36 0 15 -14 41 -17 144 -17 163 0 158 -5 158 163 0 97 -3 129 -15 140 -13 13 -13 16 0 27 12 10 15 40 15 137 0 68 -5 133 -10 144 -10 17 -23 19 -150 19 -116 0 -140 -3 -148 -16 -8 -14 -10 -14 -21 0 -11 13 -38 16 -146 16 -115 0 -134 -2 -148 -18z m273 -12 c17 -17 20 -33 20 -123 0 -146 -1 -147 -142 -147 -149 0 -148 -1 -148 146 0 143 1 144 147 144 90 0 106 -3 123 -20z m308 4 c20 -14 22 -23 22 -126 0 -148 0 -148 -137 -148 -147 0 -143 -4 -143 137 0 153 0 153 134 153 76 0 107 -4 124 -16z m-260 -276 c7 -9 6 -17 -3 -25 -10 -10 -16 -9 -25 2 -12 14 -6 35 9 35 5 0 13 -6 19 -12z m-51 -40 c21 -20 23 -30 23 -123 0 -144 -1 -145 -142 -145 -149 0 -148 -1 -148 146 0 143 1 144 144 144 89 0 102 -2 123 -22z m311 6 c20 -14 22 -23 22 -126 0 -148 0 -148 -137 -148 -147 0 -143 -4 -143 140 0 112 1 120 22 134 32 22 204 22 236 0z"/>
 <path d="M62 584 c-20 -14 -22 -23 -22 -105 0 -129 0 -129 120 -129 128 0 130 2 130 125 0 118 -7 125 -125 125 -57 0 -87 -5 -103 -16z m135 -31 c-4 -3 -7 0 -7 7 0 7 3 10 7 7 3 -4 3 -10 0 -14z m-104 -65 c-6 -96 -11 -101 -12 -15 0 42 3 77 7 77 5 0 7 -28 5 -62z m79 37 c-2 -14 -6 -25 -8 -25 -2 0 -4 11 -4 25 0 14 4 25 9 25 4 0 6 -11 3 -25z m82 -36 c14 -11 26 -26 25 -32 0 -8 -3 -7 -6 1 -3 8 -19 22 -37 33 -17 10 -26 19 -20 19 6 0 23 -9 38 -21z m-68 -69 c8 0 14 5 14 12 0 6 3 8 7 4 8 -8 -23 -36 -39 -36 -4 0 -7 19 -6 43 1 36 2 38 5 10 3 -20 10 -33 19 -33z m70 -45 c-14 -10 -45 -15 -100 -15 -57 0 -77 3 -66 10 9 6 43 7 81 4 44 -4 69 -3 73 5 4 6 13 11 19 11 7 0 3 -7 -7 -15z"/>
 <path d="M378 589 c-15 -8 -18 -25 -18 -112 0 -67 4 -107 12 -115 16 -16 200 -16 216 0 8 8 12 48 12 115 0 91 -2 103 -19 113 -25 13 -181 13 -203 -1z m117 -9 c-3 -5 -12 -10 -20 -10 -8 0 -17 5 -20 10 -4 6 5 10 20 10 15 0 24 -4 20 -10z m-65 -4 c0 -2 -9 -6 -20 -9 -11 -3 -18 -1 -14 4 5 9 34 13 34 5z m97 -3 c-4 -3 -10 -3 -14 0 -3 4 0 7 7 7 7 0 10 -3 7 -7z m63 -67 c0 -20 -39 -66 -56 -66 -8 0 -12 -5 -9 -10 7 -12 -42 -33 -56 -24 -19 11 -8 23 19 20 15 -2 20 -1 12 2 -10 3 -3 9 20 17 19 6 42 23 50 38 13 24 13 29 -8 59 l-23 33 25 -28 c14 -15 26 -34 26 -41z m-85 14 c0 -8 -9 -16 -20 -18 -17 -3 -17 -1 -5 7 13 10 13 12 0 22 -12 8 -12 10 5 7 11 -2 20 -10 20 -18z m-45 6 c0 -2 -7 -6 -15 -10 -8 -3 -15 -1 -15 4 0 6 7 10 15 10 8 0 15 -2 15 -4z m-63 -23 c-4 -3 -7 0 -7 7 0 7 3 10 7 7 3 -4 3 -10 0 -14z m14 -35 c-12 -10 -19 -23 -16 -28 3 -5 1 -11 -5 -15 -15 -9 -12 14 7 45 9 16 21 26 26 23 4 -3 -1 -14 -12 -25z m46 25 c-4 -3 -10 -3 -14 0 -3 4 0 7 7 7 7 0 10 -3 7 -7z m123 -108 c0 -5 -5 -3 -10 5 -5 8 -10 20 -10 25 0 6 5 3 10 -5 5 -8 10 -19 10 -25z m-77 -13 c30 1 53 0 50 -4 -2 -5 -28 -8 -58 -8 -44 0 -59 5 -82 26 l-28 25 31 -21 c25 -18 43 -21 87 -18z"/>
 <path d="M63 275 c-19 -13 -22 -25 -22 -73 1 -65 10 -87 47 -120 22 -20 23 -22 5 -13 -12 6 -29 21 -37 33 l-16 22 0 -22 c0 -13 5 -32 10 -43 10 -17 22 -19 115 -19 93 0 105 2 115 19 5 11 10 28 10 38 -1 17 -1 17 -11 0 -16 -28 -65 -47 -116 -46 l-48 2 55 7 c72 9 88 17 105 51 29 55 9 115 -47 142 -18 9 -26 17 -17 17 9 0 31 -13 48 -29 27 -25 31 -27 31 -10 0 10 -9 28 -20 39 -17 17 -33 20 -103 20 -58 0 -89 -5 -104 -15z m122 -5 c-3 -5 -12 -10 -20 -10 -8 0 -17 5 -20 10 -4 6 5 10 20 10 15 0 24 -4 20 -10z m-81 -14 c-18 -8 -37 -22 -43 -33 -6 -10 -11 -13 -11 -6 0 16 49 53 69 53 9 -1 2 -7 -15 -14z m90 -39 c11 -8 17 -18 15 -23 -2 -5 -14 1 -26 14 -24 24 -17 30 11 9z m-57 -21 c-7 -13 -15 -22 -19 -20 -8 5 13 44 23 44 4 0 2 -11 -4 -24z m80 -43 c-4 -3 -7 0 -7 7 0 7 3 10 7 7 3 -4 3 -10 0 -14z m-52 -44 c25 -5 27 -7 12 -14 -23 -10 -57 20 -56 49 1 18 2 18 8 -4 5 -17 16 -27 36 -31z m42 14 c-4 -3 -7 0 -7 7 0 7 3 10 7 7 3 -4 3 -10 0 -14z"/>
 <path d="M383 280 c-19 -8 -23 -17 -23 -53 0 -24 5 -48 11 -54 8 -8 8 -13 0 -17 -15 -10 -14 -89 1 -104 16 -16 200 -16 216 0 8 8 12 48 12 115 0 102 0 104 -26 113 -31 12 -161 12 -191 0z m122 -10 c-3 -5 -12 -10 -20 -10 -8 0 -17 5 -20 10 -4 6 5 10 20 10 15 0 24 -4 20 -10z m-71 -10 c-12 -4 -31 -21 -43 -36 -11 -14 -21 -23 -21 -18 0 15 54 64 69 63 11 0 9 -3 -5 -9z m103 3 c-4 -3 -10 -3 -14 0 -3 4 0 7 7 7 7 0 10 -3 7 -7z m38 -21 c-3 -3 -11 0 -18 7 -9 10 -8 11 6 5 10 -3 15 -9 12 -12z m-34 -33 c15 -8 25 -7 37 2 16 12 16 12 1 -5 -13 -14 -21 -16 -37 -7 -29 15 -52 14 -74 -6 -10 -9 -18 -11 -18 -5 0 27 56 40 91 21z m-94 -61 c-3 -8 -6 -5 -6 6 -1 11 2 17 5 13 3 -3 4 -12 1 -19z m-8 -78 c17 -7 53 -10 80 -8 28 3 48 1 45 -4 -8 -12 -102 -10 -127 3 -29 15 -67 50 -67 62 0 5 9 -2 20 -15 10 -14 33 -31 49 -38z m62 32 c-13 -2 -27 0 -32 5 -6 6 3 7 23 4 28 -4 29 -6 9 -9z m76 -4 c-3 -8 -6 -5 -6 6 -1 11 2 17 5 13 3 -3 4 -12 1 -19z"/>
 </g>
<g id="layer116" fill="#9aa4b4" stroke="none">
 <path d="M17 612 c-23 -26 -25 -247 -2 -279 13 -18 13 -22 0 -33 -12 -10 -15 -39 -15 -136 0 -166 -2 -164 162 -164 99 0 125 3 140 17 17 15 19 15 36 0 15 -14 41 -17 144 -17 163 0 158 -5 158 163 0 97 -3 129 -15 140 -13 13 -13 16 0 27 12 10 15 40 15 137 0 68 -5 133 -10 144 -10 17 -23 19 -150 19 -116 0 -140 -3 -148 -16 -8 -14 -10 -14 -21 0 -11 13 -38 16 -146 16 -115 0 -134 -2 -148 -18z m273 -12 c17 -17 20 -33 20 -123 0 -146 -1 -147 -142 -147 -149 0 -148 -1 -148 146 0 143 1 144 147 144 90 0 106 -3 123 -20z m308 4 c20 -14 22 -23 22 -126 0 -148 0 -148 -137 -148 -147 0 -143 -4 -143 137 0 153 0 153 134 153 76 0 107 -4 124 -16z m-260 -276 c7 -9 6 -17 -3 -25 -10 -10 -16 -9 -25 2 -12 14 -6 35 9 35 5 0 13 -6 19 -12z m-51 -40 c21 -20 23 -30 23 -123 0 -144 -1 -145 -142 -145 -149 0 -148 -1 -148 146 0 143 1 144 144 144 89 0 102 -2 123 -22z m311 6 c20 -14 22 -23 22 -126 0 -148 0 -148 -137 -148 -147 0 -143 -4 -143 140 0 112 1 120 22 134 32 22 204 22 236 0z"/>
 <path d="M80 560 c0 -5 5 -10 10 -10 13 0 13 -147 0 -155 -23 -14 -6 -20 63 -22 86 -2 117 12 117 57 0 35 -40 70 -81 70 -24 0 -29 4 -29 25 0 16 6 25 15 25 8 0 15 5 15 10 0 6 -25 10 -55 10 -30 0 -55 -4 -55 -10z m129 -115 c3 -17 -22 -45 -41 -45 -4 0 -8 18 -8 40 0 37 2 39 23 31 12 -5 24 -16 26 -26z"/>
 <path d="M402 562 c-10 -7 -10 -15 -2 -37 l11 -28 20 22 c14 15 30 21 47 19 41 -5 33 -31 -12 -46 -53 -17 -66 -29 -66 -63 0 -34 40 -59 94 -59 61 0 79 15 56 50 -7 11 -12 12 -18 3 -4 -6 -21 -13 -37 -15 -43 -4 -39 23 5 35 47 12 70 34 70 68 0 40 -33 59 -100 59 -30 0 -61 -4 -68 -8z"/>
 <path d="M79 231 c-42 -42 -40 -92 5 -137 28 -28 42 -34 75 -34 57 0 100 24 117 66 12 29 12 39 0 68 -20 48 -51 66 -114 66 -46 0 -58 -4 -83 -29z m123 -18 c24 -22 24 -77 -2 -103 -35 -35 -76 -18 -86 35 -12 66 43 109 88 68z"/>
 <path d="M405 235 c-34 -33 -35 -102 -2 -132 32 -29 62 -43 94 -43 47 0 73 11 73 31 0 21 -22 38 -28 21 -5 -16 -75 -15 -90 0 -18 18 -14 73 6 91 21 19 64 22 92 7 29 -16 38 10 10 32 -15 12 -39 18 -77 18 -44 0 -58 -5 -78 -25z"/>
 </g>
<g id="layer117" fill="#f9ba89" stroke="none">
 <path d="M17 612 c-23 -26 -25 -247 -2 -279 13 -18 13 -22 0 -33 -12 -10 -15 -39 -15 -136 0 -166 -2 -164 162 -164 99 0 125 3 140 17 17 15 19 15 36 0 15 -14 41 -17 144 -17 163 0 158 -5 158 163 0 97 -3 129 -15 140 -13 13 -13 16 0 27 12 10 15 40 15 137 0 68 -5 133 -10 144 -10 17 -23 19 -150 19 -116 0 -140 -3 -148 -16 -8 -14 -10 -14 -21 0 -11 13 -38 16 -146 16 -115 0 -134 -2 -148 -18z m273 -12 c18 -18 20 -33 20 -127 0 -143 0 -143 -143 -143 -148 0 -147 -1 -147 146 0 143 1 144 147 144 90 0 106 -3 123 -20z m320 -7 c20 -25 21 -38 18 -131 -4 -132 -4 -132 -148 -132 -147 0 -144 -3 -141 146 2 97 5 121 18 132 11 8 54 12 124 12 105 0 108 -1 129 -27z m-272 -265 c7 -9 6 -17 -3 -25 -10 -10 -16 -9 -25 2 -12 14 -6 35 9 35 5 0 13 -6 19 -12z m-51 -40 c21 -20 23 -30 23 -126 0 -143 1 -142 -146 -142 -147 0 -144 -3 -144 145 0 144 1 145 144 145 89 0 102 -2 123 -22z m323 -5 c20 -25 21 -38 18 -131 -4 -133 -3 -132 -154 -132 -89 0 -114 3 -124 16 -10 11 -13 47 -11 127 3 148 2 147 142 147 105 0 108 -1 129 -27z"/>
 <path d="M80 560 c0 -5 5 -10 10 -10 13 0 13 -147 0 -155 -23 -14 -6 -20 63 -22 86 -2 117 12 117 57 0 35 -40 70 -81 70 -24 0 -29 4 -29 25 0 16 6 25 15 25 8 0 15 5 15 10 0 6 -25 10 -55 10 -30 0 -55 -4 -55 -10z m129 -115 c3 -17 -22 -45 -41 -45 -4 0 -8 18 -8 40 0 37 2 39 23 31 12 -5 24 -16 26 -26z"/>
 <path d="M402 562 c-10 -7 -10 -15 -2 -37 l11 -28 20 22 c14 15 30 21 47 19 41 -5 33 -31 -12 -46 -53 -17 -66 -29 -66 -63 0 -34 40 -59 94 -59 61 0 79 15 56 50 -7 11 -12 12 -18 3 -4 -6 -21 -13 -37 -15 -43 -4 -39 23 5 35 47 12 70 34 70 68 0 40 -33 59 -100 59 -30 0 -61 -4 -68 -8z"/>
 <path d="M79 231 c-42 -42 -40 -92 5 -137 28 -28 42 -34 75 -34 57 0 100 24 117 66 12 29 12 39 0 68 -20 48 -51 66 -114 66 -46 0 -58 -4 -83 -29z m123 -18 c24 -22 24 -77 -2 -103 -35 -35 -76 -18 -86 35 -12 66 43 109 88 68z"/>
 <path d="M405 235 c-34 -33 -35 -102 -2 -132 32 -29 62 -43 94 -43 47 0 73 11 73 31 0 21 -22 38 -28 21 -5 -16 -75 -15 -90 0 -18 18 -14 73 6 91 21 19 64 22 92 7 29 -16 38 10 10 32 -15 12 -39 18 -77 18 -44 0 -58 -5 -78 -25z"/>
 </g>
<g id="layer118" fill="#b8bec7" stroke="none">
 <path d="M17 612 c-23 -26 -25 -247 -2 -279 13 -18 13 -22 0 -33 -12 -10 -15 -39 -15 -136 0 -166 -2 -164 162 -164 99 0 125 3 140 17 17 15 19 15 36 0 15 -14 41 -17 144 -17 163 0 158 -5 158 163 0 97 -3 129 -15 140 -13 13 -13 16 0 27 12 10 15 40 15 137 0 68 -5 133 -10 144 -10 17 -23 19 -150 19 -116 0 -140 -3 -148 -16 -8 -14 -10 -14 -21 0 -11 13 -38 16 -146 16 -115 0 -134 -2 -148 -18z m273 -12 c18 -18 20 -33 20 -127 0 -143 0 -143 -143 -143 -148 0 -147 -1 -147 146 0 143 1 144 147 144 90 0 106 -3 123 -20z m320 -7 c20 -25 21 -38 18 -131 -4 -132 -4 -132 -148 -132 -147 0 -144 -3 -141 146 2 97 5 121 18 132 11 8 54 12 124 12 105 0 108 -1 129 -27z m-272 -265 c7 -9 6 -17 -3 -25 -10 -10 -16 -9 -25 2 -12 14 -6 35 9 35 5 0 13 -6 19 -12z m-51 -40 c21 -20 23 -30 23 -126 0 -143 1 -142 -146 -142 -147 0 -144 -3 -144 145 0 144 1 145 144 145 89 0 102 -2 123 -22z m323 -5 c20 -25 21 -38 18 -131 -4 -133 -3 -132 -154 -132 -89 0 -114 3 -124 16 -10 11 -13 47 -11 127 3 148 2 147 142 147 105 0 108 -1 129 -27z"/>
 <path d="M80 560 c0 -5 5 -10 10 -10 15 0 13 -143 -2 -158 -9 -9 7 -12 73 -12 93 0 109 8 109 51 0 32 -41 69 -76 69 -30 0 -32 -26 -3 -33 29 -8 23 -61 -7 -65 -18 -3 -22 3 -27 45 -6 54 1 103 14 103 5 0 9 5 9 10 0 6 -22 10 -50 10 -27 0 -50 -4 -50 -10z"/>
 <path d="M401 561 c-10 -7 -11 -13 -1 -31 11 -20 13 -21 30 -5 20 18 71 17 77 -2 3 -7 -13 -20 -34 -29 -64 -28 -68 -30 -71 -53 -7 -47 49 -76 122 -64 36 6 43 16 27 42 -8 12 -12 12 -26 -2 -18 -19 -42 -21 -64 -8 -20 13 -6 28 32 36 77 16 101 65 51 104 -28 22 -115 29 -143 12z"/>
 <path d="M79 231 c-82 -82 17 -198 136 -159 30 10 44 22 58 50 16 33 17 40 3 72 -18 43 -60 66 -121 66 -38 0 -52 -5 -76 -29z m123 -18 c24 -22 24 -77 -2 -103 -35 -35 -76 -18 -86 35 -12 66 43 109 88 68z"/>
 <path d="M411 234 c-38 -32 -43 -87 -10 -127 24 -31 89 -51 136 -42 29 5 33 9 27 28 -9 31 -11 31 -29 13 -21 -20 -44 -20 -73 0 -33 23 -27 79 11 108 24 18 31 19 59 8 44 -16 60 2 20 22 -48 25 -105 21 -141 -10z"/>
 </g>
<g id="layer119" fill="#f3e0d3" stroke="none">
 <path d="M17 612 c-23 -26 -25 -247 -2 -279 13 -18 13 -22 0 -33 -12 -10 -15 -39 -15 -136 0 -166 -2 -164 162 -164 99 0 125 3 140 17 17 15 19 15 36 0 15 -14 41 -17 144 -17 163 0 158 -5 158 163 0 97 -3 129 -15 140 -13 13 -13 16 0 27 12 10 15 40 15 137 0 68 -5 133 -10 144 -10 17 -23 19 -150 19 -116 0 -140 -3 -148 -16 -8 -14 -10 -14 -21 0 -11 13 -38 16 -146 16 -115 0 -134 -2 -148 -18z m271 -8 c20 -14 22 -23 22 -126 0 -149 1 -148 -146 -148 -147 0 -144 -3 -144 142 0 148 0 148 139 148 80 0 112 -4 129 -16z m322 -6 c17 -19 20 -35 20 -123 0 -145 0 -145 -149 -145 -93 0 -121 3 -131 15 -8 10 -12 54 -12 132 0 146 -3 143 144 143 97 0 109 -2 128 -22z m-272 -270 c7 -9 6 -17 -3 -25 -10 -10 -16 -9 -25 2 -12 14 -6 35 9 35 5 0 13 -6 19 -12z m-53 -34 c24 -16 25 -20 25 -127 0 -148 1 -147 -146 -147 -147 0 -144 -3 -144 142 0 148 0 148 137 148 79 0 110 -4 128 -16z m324 -10 c18 -23 21 -41 21 -123 0 -140 -1 -141 -149 -141 -93 0 -121 3 -131 15 -8 10 -12 54 -12 132 0 146 -3 143 143 143 104 0 108 -1 128 -26z"/>
 <path d="M80 560 c0 -5 5 -10 10 -10 15 0 13 -143 -2 -158 -9 -9 7 -12 73 -12 93 0 109 8 109 51 0 32 -41 69 -76 69 -30 0 -32 -26 -3 -33 29 -8 23 -61 -7 -65 -18 -3 -22 3 -27 45 -6 54 1 103 14 103 5 0 9 5 9 10 0 6 -22 10 -50 10 -27 0 -50 -4 -50 -10z"/>
 <path d="M401 561 c-10 -7 -11 -13 -1 -31 11 -20 13 -21 30 -5 20 18 71 17 77 -2 3 -7 -13 -20 -34 -29 -64 -28 -68 -30 -71 -53 -7 -47 49 -76 122 -64 36 6 43 16 27 42 -8 12 -12 12 -26 -2 -18 -19 -42 -21 -64 -8 -20 13 -6 28 32 36 77 16 101 65 51 104 -28 22 -115 29 -143 12z"/>
 <path d="M79 231 c-82 -82 17 -198 136 -159 30 10 44 22 58 50 16 33 17 40 3 72 -18 43 -60 66 -121 66 -38 0 -52 -5 -76 -29z m123 -18 c24 -22 24 -77 -2 -103 -35 -35 -76 -18 -86 35 -12 66 43 109 88 68z"/>
 <path d="M411 234 c-38 -32 -43 -87 -10 -127 24 -31 89 -51 136 -42 29 5 33 9 27 28 -9 31 -11 31 -29 13 -21 -20 -44 -20 -73 0 -33 23 -27 79 11 108 24 18 31 19 59 8 44 -16 60 2 20 22 -48 25 -105 21 -141 -10z"/>
 </g>
<g id="layer120" fill="#dfe2e7" stroke="none">
 <path d="M17 612 c-23 -26 -25 -247 -2 -279 13 -18 13 -22 0 -33 -12 -10 -15 -39 -15 -136 0 -166 -2 -164 162 -164 99 0 125 3 140 17 17 15 19 15 36 0 15 -14 41 -17 144 -17 163 0 158 -5 158 163 0 97 -3 129 -15 140 -13 13 -13 16 0 27 12 10 15 40 15 137 0 68 -5 133 -10 144 -10 17 -23 19 -150 19 -116 0 -140 -3 -148 -16 -8 -14 -10 -14 -21 0 -11 13 -38 16 -146 16 -115 0 -134 -2 -148 -18z m271 -8 c20 -14 22 -23 22 -126 0 -149 1 -148 -146 -148 -147 0 -144 -3 -144 142 0 148 0 148 139 148 80 0 112 -4 129 -16z m322 -6 c17 -19 20 -35 20 -123 0 -145 0 -145 -149 -145 -93 0 -121 3 -131 15 -8 10 -12 54 -12 132 0 146 -3 143 144 143 97 0 109 -2 128 -22z m-272 -270 c7 -9 6 -17 -3 -25 -10 -10 -16 -9 -25 2 -12 14 -6 35 9 35 5 0 13 -6 19 -12z m-53 -34 c24 -16 25 -20 25 -127 0 -148 1 -147 -146 -147 -147 0 -144 -3 -144 142 0 148 0 148 137 148 79 0 110 -4 128 -16z m324 -10 c18 -23 21 -41 21 -123 0 -140 -1 -141 -149 -141 -93 0 -121 3 -131 15 -8 10 -12 54 -12 132 0 146 -3 143 143 143 104 0 108 -1 128 -26z"/>
 <path d="M91 556 c13 -14 11 -150 -3 -164 -9 -9 6 -12 68 -12 66 0 84 3 97 18 35 39 12 83 -50 97 -36 7 -48 -13 -13 -22 41 -11 32 -73 -11 -73 -19 0 -20 2 -24 110 0 19 5 40 12 45 10 7 -1 10 -36 10 -32 0 -46 -3 -40 -9z"/>
 <path d="M418 563 c-19 -5 -22 -12 -12 -37 5 -14 9 -13 31 4 31 24 56 26 73 5 17 -20 -1 -41 -42 -49 -38 -8 -68 -33 -68 -57 0 -30 39 -49 102 -49 58 0 64 4 52 34 -5 14 -8 14 -21 1 -16 -17 -51 -19 -72 -6 -21 13 -6 27 44 41 57 16 71 33 59 68 -15 43 -79 63 -146 45z"/>
 <path d="M115 253 c-51 -13 -73 -72 -50 -130 17 -40 42 -53 102 -53 55 0 85 17 107 61 37 73 -61 149 -159 122z m80 -29 c32 -21 41 -66 20 -98 -23 -34 -50 -41 -82 -21 -23 15 -25 22 -20 63 3 28 12 51 23 59 23 17 30 16 59 -3z"/>
 <path d="M430 247 c-56 -28 -64 -121 -14 -154 27 -17 110 -34 131 -26 13 5 19 53 7 53 -3 0 -12 -7 -20 -15 -39 -38 -106 2 -100 59 7 56 57 77 120 51 28 -12 15 17 -15 32 -31 16 -77 16 -109 0z"/>
 </g>
<g id="layer121" fill="#fefdfd" stroke="none">
 <path d="M17 612 c-23 -26 -25 -247 -2 -279 13 -18 13 -22 0 -33 -12 -10 -15 -39 -15 -136 0 -166 -2 -164 162 -164 99 0 125 3 140 17 17 15 19 15 36 0 15 -14 41 -17 144 -17 163 0 158 -5 158 163 0 97 -3 129 -15 140 -13 13 -13 16 0 27 12 10 15 40 15 137 0 68 -5 133 -10 144 -10 17 -23 19 -150 19 -116 0 -140 -3 -148 -16 -8 -14 -10 -14 -21 0 -11 13 -38 16 -146 16 -115 0 -134 -2 -148 -18z m275 -9 c15 -14 18 -32 18 -129 0 -136 -5 -144 -88 -145 -214 -3 -206 -8 -210 134 -3 92 -2 105 18 130 21 27 23 27 132 27 90 0 115 -3 130 -17z m318 -3 c17 -17 20 -33 20 -123 0 -147 0 -147 -149 -147 -95 0 -121 3 -131 16 -18 20 -17 239 0 259 10 12 39 15 126 15 101 0 116 -2 134 -20z m-272 -272 c7 -9 6 -17 -3 -25 -10 -10 -16 -9 -25 2 -12 14 -6 35 9 35 5 0 13 -6 19 -12z m-46 -35 c15 -14 18 -32 18 -129 0 -153 -7 -159 -169 -153 -121 5 -125 9 -129 142 -3 92 -2 105 18 130 21 27 23 27 132 27 90 0 115 -3 130 -17z m318 -3 c17 -17 20 -33 20 -124 0 -145 -4 -150 -142 -154 -91 -3 -107 -1 -128 16 -22 18 -23 24 -22 137 0 102 3 121 18 132 12 9 53 13 126 13 95 0 110 -2 128 -20z"/>
 <path d="M91 556 c13 -14 11 -150 -3 -164 -9 -9 6 -12 68 -12 66 0 84 3 97 18 35 39 12 83 -50 97 -36 7 -48 -13 -13 -22 41 -11 32 -73 -11 -73 -19 0 -20 2 -24 110 0 19 5 40 12 45 10 7 -1 10 -36 10 -32 0 -46 -3 -40 -9z"/>
 <path d="M418 563 c-19 -5 -22 -12 -12 -37 5 -14 9 -13 31 4 31 24 56 26 73 5 17 -20 -1 -41 -42 -49 -38 -8 -68 -33 -68 -57 0 -30 39 -49 102 -49 58 0 64 4 52 34 -5 14 -8 14 -21 1 -16 -17 -51 -19 -72 -6 -21 13 -6 27 44 41 57 16 71 33 59 68 -15 43 -79 63 -146 45z"/>
 <path d="M115 253 c-51 -13 -73 -72 -50 -130 17 -40 42 -53 102 -53 55 0 85 17 107 61 37 73 -61 149 -159 122z m80 -29 c32 -21 41 -66 20 -98 -23 -34 -50 -41 -82 -21 -23 15 -25 22 -20 63 3 28 12 51 23 59 23 17 30 16 59 -3z"/>
 <path d="M430 247 c-56 -28 -64 -121 -14 -154 27 -17 110 -34 131 -26 13 5 19 53 7 53 -3 0 -12 -7 -20 -15 -39 -38 -106 2 -100 59 7 56 57 77 120 51 28 -12 15 17 -15 32 -31 16 -77 16 -109 0z"/>
 </g>

</svg>